<svg xmlns="http://www.w3.org/2000/svg" width="36" height="36">
<circle fill="#0D6AB6" cx="18.6" cy="14.4" r=".9"/>
<path fill="#0D6AB6" d="M32.3 13.1l-1.4-.4s-.4-.1-.6.4l-4.8-1.3c.1-.5-.2-1.1-.7-1.2L16 8.2c-.1-.6-.5-1.2-1.1-1.3L9.7 5.5l.2-.7c0-.1 0-.3-.1-.4 0-.1-.1-.2-.3-.2l-2.2-.6c-.3 0-.6.1-.6.4v.2c-1.9.3-3.4 1.7-3.9 3.5-.5 1.9.2 3.9 1.7 5.2v.1c0 .1 0 .3.1.4.1.1.2.2.3.2l2.1.5h.1c.2 0 .4-.2.5-.4l.1-.5 5 1.3c.6.2 1.3-.1 1.6-.6l.9.3v.3c0 .7.2 1.3.5 1.8L9.2 27.6c-.4.7-.2 1.6.6 2 .7.4 1.6.2 2-.5l5.2-9v10.4c0 .8.7 1.5 1.5 1.5s1.5-.7 1.5-1.5V20.1l5.2 9c.4.7 1.3 1 2 .5.7-.4 1-1.3.6-2l-6.5-11.3c.1-.1.2-.3.2-.4l1.7.5c.5.1 1.1-.2 1.2-.7l4.9 1.3c-.1.3 0 .5.3.6l1.4.4c.5.1 1.1-.2 1.2-.7l.8-2.9c.1-.6-.2-1.2-.7-1.3zM8.8 5l-2 7.9-1.3-.3 2-7.9 1.3.3zM3.7 8c.4-1.2 1.4-2.1 2.6-2.5l-1.6 6.2c-.8-1-1.4-2.3-1-3.7zm10 5.2c-.1.3-.3.4-.6.4L8 12.3l1.5-5.8 5.1 1.4c.3 0 .4.2.4.5l-1.3 4.8zm3.3 5.1l-6.1 10.4c-.1.2-.4.3-.7.2-.2-.1-.3-.4-.2-.7l6.6-11.1c.1.1.3.2.4.3v.9zm2 12.3c0 .2-.2.4-.5.4s-.5-.2-.5-.5V17.7c.2 0 .4.1.6.1h.4v12.8zm-.4-13.8c-1.3 0-2.3-1-2.3-2.3 0-1.3 1-2.3 2.3-2.3s2.3 1 2.3 2.3c0 1.2-1.1 2.3-2.3 2.3zm8.3 11.4c.1.2.1.5-.2.7-.2.1-.5.1-.7-.2l-6.1-10.5v-.7l.6-.3 6.4 11zm-2.5-16.3l-.4 1.4-.4 1.4-.1.5-1.7-.4v-.3c0-1.8-1.5-3.3-3.3-3.3-1.4 0-2.5.8-3 2l-.7-.2.8-3 .2-.7 8.7 2.3-.1.3zm5.1 4.1l-4.8-1.3.5-1.9 4.8 1.3-.5 1.9zm1.8 1l-1-.3.8-2.9 1 .3-.8 2.9z"/>
</svg>