<svg xmlns="http://www.w3.org/2000/svg" width="36" height="36">
<path fill="#0D6AB6" d="M29.6 30h-1.5c-.3 0-.5.2-.5.5s.2.5.5.5h1.5c.3 0 .5-.2.5-.5s-.2-.5-.5-.5zM20.1 26c-.8 0-1.5.7-1.5 1.5s.7 1.5 1.5 1.5 1.5-.7 1.5-1.5-.7-1.5-1.5-1.5zm0 2c-.3 0-.5-.2-.5-.5s.2-.5.5-.5.5.2.5.5-.2.5-.5.5z"/>
<path fill="#0D6AB6" d="M26.4 30h-1.6l-1.6-3.2c-.2-.5-.5-1-.9-1.5.2-.2.6-.6.6-1.7v-9.5c0-1.9-1.6-3.5-3.5-3.5H17c-.3-.2-.7-.4-1.1-.4V8.6c0-.3-.2-.6-.5-.6H15V6.2h.5c.3 0 .5-.2.5-.5s-.2-.5-.5-.5h-4c-.3 0-.5.2-.5.5s.2.5.5.5h.5V8h-.5c-.3 0-.5.2-.5.5v8c0 .3.2.5.5.5v2.5c0 .3.2.5.5.5h3c.3 0 .5-.2.5-.5V17c.3 0 .5-.2.5-.5v-1.1c.3-.1.6-.2.9-.4h.1c1.1 0 2 .9 2 2v7.2c-.8.3-1.5 1-1.8 1.8H15c.3 0 .5-.2.5-.5s-.2-.5-.5-.5h-3c-.3 0-.5.2-.5.5s.2.5.5.5h-1c-.3 0-.5.2-.5.5s.2.5.5.5h6v3h-3v-1h1.4c.3 0 .6-.2.6-.5s-.2-.5-.6-.5h-3.9c-.3 0-.6.2-.6.5s.2.5.6.5H13v1H6.6c-.3 0-.5.2-.5.5s.2.5.5.5h19.8c.3 0 .5-.2.5-.5s-.2-.5-.5-.5zm-9.2-17.2c0 1-.8 1.7-1.7 1.7s-1.7-.8-1.7-1.7.8-1.7 1.7-1.7 1.7.7 1.7 1.7zM13 6.2h1V8h-1V6.2zM14.5 19h-2v-2h2v2zM12 16.1V9h3v1.2c-1.2.2-2.2 1.3-2.2 2.6s.9 2.4 2.2 2.6v.7h-3zm5.8-2c.2-.4.4-.9.4-1.4 0-.4-.1-.8-.3-1.2h1.5c1.4 0 2.5 1.1 2.5 2.5v9.5c0 .6-.2 1-.3 1.1-.5-.4-1-.6-1.7-.6v-7c.1-1.3-.9-2.5-2.1-2.9zM18 30v-3c0-1.2.9-2 2-2 .5 0 .9.2 1.3.6.4.4.7 1 1 1.6l1.3 2.8H18z"/>
<ellipse fill="#0D6AB6" transform="rotate(-82.519 15.501 12.766)" cx="15.5" cy="12.8" rx=".6" ry=".6"/>
</svg>