<svg xmlns="http://www.w3.org/2000/svg" width="36" height="36">
<path fill="#0D6AB6" d="M16 26c-1.1 0-2 .9-2 2s.9 2 2 2 2-.9 2-2-.9-2-2-2zm0 3c-.6 0-1-.4-1-1s.4-1 1-1 1 .4 1 1-.4 1-1 1zM20.5 9.5c.8 0 1.5-.7 1.5-1.5 0-.9-.7-1.5-1.5-1.5S19 7.2 19 8s.7 1.5 1.5 1.5zm0-2c.3 0 .5.2.5.5s-.2.5-.5.5-.5-.2-.5-.5.2-.5.5-.5zM18.5 25c.8 0 1.5-.7 1.5-1.5 0-.9-.7-1.5-1.5-1.5s-1.5.7-1.5 1.5.7 1.5 1.5 1.5zm0-2c.3 0 .5.2.5.5s-.2.5-.5.5-.5-.2-.5-.5.2-.5.5-.5zM23.5 28c-.8 0-1.5.7-1.5 1.5s.7 1.5 1.5 1.5 1.5-.7 1.5-1.5c0-.9-.7-1.5-1.5-1.5zm0 2c-.3 0-.5-.2-.5-.5s.2-.5.5-.5.5.2.5.5-.2.5-.5.5z"/>
<path fill="#0D6AB6" d="M27.7 29.1l-6.8-10V13h.3c.9 0 1.7-.7 1.7-1.7s-.8-1.7-1.7-1.7h-6.5c-.9 0-1.7.7-1.7 1.7s.7 1.7 1.7 1.7h.3v6.1l-6.8 10c-.2.4-.5 1-.5 1.4 0 .6.2 1.1.5 1.5.5.6 1.2 1 2 1h15.5c.8 0 1.5-.4 2-1 .3-.4.5-.9.5-1.5 0-.4-.3-1-.5-1.4zM14.1 11.4c0-.4.3-.7.7-.7h6.5c.4 0 .7.3.7.7s-.4.6-.8.6h-6.5c-.3 0-.6-.3-.6-.6zm11.5 20.7H10.3c-.8 0-1.5-.7-1.5-1.5 0-.3.1-.6.3-.9l1.8-2.6H13c.3 0 .5-.2.5-.5s-.2-.5-.5-.5h-1.5l4.4-6.5c.1-.1.1-.2.1-.3v-.2h2.5c.7 0 .7-1 0-1H16v-1h1.8c.7 0 .7-1 0-1H16v-1h2.5c.7 0 .7-1 0-1H16V13h3.9v6.3c0 .1 0 .2.1.3l4.4 6.5h-5.5c-.3 0-.5.2-.5.5s.2.5.5.5H25l1.8 2.6c.2.3.3.6.3.9 0 .8-.7 1.5-1.5 1.5zM12.9 7.8c-1.2 0-2.1-1-2.1-2.1s1-2.1 2.1-2.1 2.1 1 2.1 2.1-.9 2.1-2.1 2.1zm0-3c-.4 0-.8.4-.8.8s.4.8.8.8.8-.4.8-.8-.3-.8-.8-.8z"/>
</svg>