<svg xmlns="http://www.w3.org/2000/svg" width="36" height="36">
<path fill="#0D6AB6" d="M13.5 5.038c-.3 0-.5.2-.5.5 0 1.4 1.1 2.5 2.5 2.5h4c.8 0 1.5.7 1.5 1.5s-.7 1.5-1.5 1.5h-11c-1.4 0-2.5 1.1-2.5 2.5v1.5H4c-1.1 0-2 .9-2 2v13c0 1.1.9 2 2 2h28c1.1 0 2-.9 2-2v-13c0-1.1-.9-2-2-2H7v-1.5c0-.8.7-1.5 1.5-1.5h11c1.4 0 2.5-1.1 2.5-2.5s-1.1-2.5-2.5-2.5h-4c-.8 0-1.5-.7-1.5-1.5 0-.3-.2-.5-.5-.5zm-9.5 11h28c.6 0 1 .4 1 1v13c0 .6-.4 1-1 1H4c-.6 0-1-.4-1-1v-13c0-.6.4-1 1-1zm1.4 1c-.3 0-.5.2-.5.5s.2.5.5.5h1c.3 0 .5-.2.5-.5s-.2-.5-.5-.5h-1c.1 0 .1 0 0 0zm3 0c-.3 0-.5.2-.5.5s.2.5.5.5h1c.3 0 .5-.2.5-.5s-.2-.5-.5-.5h-1c.1 0 .1 0 0 0zm3 0c-.3 0-.5.2-.5.5s.2.5.5.5h1c.3 0 .5-.2.5-.5s-.2-.5-.5-.5h-1c.1 0 .1 0 0 0zm3 0c-.3 0-.5.2-.5.5s.2.5.5.5h1c.3 0 .5-.2.5-.5s-.2-.5-.5-.5h-1c.1 0 .1 0 0 0zm3 0c-.3 0-.5.2-.5.5s.2.5.5.5h1c.3 0 .5-.2.5-.5s-.2-.5-.5-.5h-1c.1 0 .1 0 0 0zm3 0c-.3 0-.5.2-.5.5s.2.5.5.5h1c.3 0 .5-.2.5-.5s-.2-.5-.5-.5h-1c.1 0 .1 0 0 0zm3 0c-.3 0-.5.2-.5.5s.2.5.5.5h1c.3 0 .5-.2.5-.5s-.2-.5-.5-.5h-1c.1 0 .1 0 0 0zm3 0c-.3 0-.5.2-.5.5s.2.5.5.5h1c.3 0 .5-.2.5-.5s-.2-.5-.5-.5h-1c.1 0 .1 0 0 0zm3 0c-.3 0-.5.2-.5.5s.2.5.5.5h1c.3 0 .5-.2.5-.5s-.2-.5-.5-.5h-1c.1 0 .1 0 0 0zm-24.9 2c-.3 0-.5.2-.5.5v2c0 .3.2.5.5.5h2c.3 0 .5-.2.5-.5v-2c0-.3-.2-.5-.5-.5h-2zm4 0c-.3 0-.5.2-.5.5v2c0 .3.2.5.5.5h2c.3 0 .5-.2.5-.5v-2c0-.3-.2-.5-.5-.5h-2zm4 0c-.3 0-.5.2-.5.5v2c0 .3.2.5.5.5h2c.3 0 .5-.2.5-.5v-2c0-.3-.2-.5-.5-.5h-2zm4 0c-.3 0-.5.2-.5.5v2c0 .3.2.5.5.5h2c.3 0 .5-.2.5-.5v-2c0-.3-.2-.5-.5-.5h-2zm10 1c-.3 0-.5.2-.5.5s.2.5.5.5.5-.2.5-.5-.2-.5-.5-.5zm2 0c-.3 0-.5.2-.5.5s.2.5.5.5.5-.2.5-.5-.2-.5-.5-.5zm2 0c-.3 0-.5.2-.5.5s.2.5.5.5.5-.2.5-.5-.2-.5-.5-.5zm-25.5 0h1v1H5v-1zm4 0h1v1H9v-1zm4 0h1v1h-1v-1zm4 0h1v1h-1v-1zm3.5 1c-.3 0-.5.2-.5.5v1.5h-3.5c-.3 0-.5.2-.5.5v2c0 .3.2.5.5.5h6c.3 0 .5-.2.5-.5v-4c0-.3-.2-.5-.5-.5h-2zm.5 1h1v3h-5v-1h3.5c.3 0 .5-.2.5-.5v-1.5zm-16.5 1c-.3 0-.5.2-.5.5v2c0 .3.2.5.5.5h2c.3 0 .5-.2.5-.5v-2c0-.3-.2-.5-.5-.5h-2zm4 0c-.3 0-.5.2-.5.5v2c0 .3.2.5.5.5h2c.3 0 .5-.2.5-.5v-2c0-.3-.2-.5-.5-.5h-2zm4 0c-.3 0-.5.2-.5.5v2c0 .3.2.5.5.5h2c.3 0 .5-.2.5-.5v-2c0-.3-.2-.5-.5-.5h-2zm13 0c-.3 0-.5.2-.5.5v2c0 .3.2.5.5.5h2c.3 0 .5-.2.5-.5v-2c0-.3-.2-.5-.5-.5h-2zm-20.5 1h1v1H5v-1zm4 0h1v1H9v-1zm4 0h1v1h-1v-1zm13 0h1v1h-1v-1zm-21.5 3c-.3 0-.5.2-.5.5v2c0 .3.2.5.5.5h2c.3 0 .5-.2.5-.5v-2c0-.3-.2-.5-.5-.5h-2zm4 0c-.3 0-.5.2-.5.5v2c0 .3.2.5.5.5h9c.3 0 .5-.2.5-.5v-2c0-.3-.2-.5-.5-.5h-9zm13 0c-.3 0-.5.2-.5.5v2c0 .3.2.5.5.5h2c.3 0 .5-.2.5-.5v-2c0-.3-.2-.5-.5-.5h-2zm4 0c-.3 0-.5.2-.5.5v2c0 .3.2.5.5.5h2c.3 0 .5-.2.5-.5v-2c0-.3-.2-.5-.5-.5h-2zm4 0c-.3 0-.5.2-.5.5v2c0 .3.2.5.5.5h2c.3 0 .5-.2.5-.5v-2c0-.3-.2-.5-.5-.5h-2zm-24.5 1h1v1H5v-1zm4 0h8v1H9v-1zm13 0h1v1h-1v-1zm4 0h1v1h-1v-1zm4 0h1v1h-1v-1z"/>
</svg>