<svg xmlns="http://www.w3.org/2000/svg" width="36" height="36">
<path fill="#0D6AB6" d="M22.4 3.038l-.7 1c-4.7-2.4-10.6-.8-13.3 3.9-2.7 4.6-1.2 10.5 3.2 13.4l-.8 1.4c-.1.2-.1.6.2.8 2 1.1 4.1 1.6 6.2 1.6l-1.5 3c-.9.2-1.7 1-1.7 2h-1c-1.1 0-2 .9-2 2v.5c0 .3.2.5.5.5h13c.3 0 .5-.2.5-.5v-.5c0-1.1-.9-2-2-2h-1c0-1-.7-1.8-1.7-2l-1.6-3.1c3.5-.5 6.7-2.6 8.6-5.8 3.3-5.7 1.5-13-4.1-16.3-.4-.3-.7 0-.8.1zm.6.8c4.9 3.2 6.5 9.6 3.5 14.7s-9.3 6.8-14.5 4.2l.5-.9c4.7 2.4 10.5.8 13.1-3.9 2.7-4.6 1.3-10.4-3.1-13.3l.5-.8zm-5.8.2c.5 0 1 .1 1.5.2-.6.2-1.1.5-1.7.8-.6.4-1.1.8-1.7 1.3l-2.3-1.4c1.3-.7 2.8-1 4.2-.9zm3 .9c.3 0 .6 0 .8.1l-2 3.4-2.8-1.6c.4-.4.9-.7 1.3-1 1-.6 1.9-.9 2.7-.9zm-8.2.6l2.6 1.5c-.8.8-1.5 1.8-2.1 2.8l-3-1.7c.7-1.1 1.5-2 2.5-2.6zm9.9 0c.7.7 1.1 1.9 1 3.4 0 .5-.1 1-.2 1.6l-2.8-1.6 2-3.4zm1.9 1.5c1.3 1.5 2.1 3.4 2.2 5.3l-2.3-1.4c.2-.7.5-2.7.1-3.9zm-8.3.5l3 1.8-1.7 3-3.5-2c.7-1.1 1.5-2 2.2-2.8zM9 8.938l3 1.7c-.6 1.1-1.1 2.2-1.4 3.2l-2.6-1.5c.1-1.1.4-2.3 1-3.4zm10.4.8l3 1.8c-.3 1.1-.7 2.2-1.3 3.3l-3.5-2 1.8-3.1zm-6.5 1.5l3.4 1.9-1.7 3.1-3-1.8c.2-1 .7-2.1 1.3-3.2zm10.5.8l2.6 1.5c-.1 1.2-.4 2.4-1 3.5l-3-1.7c.6-1.1 1.1-2.2 1.4-3.3zM8 13.538l2.3 1.4c-.2.7-.3 1.4-.3 2.1s0 1.3.1 1.9c-1.2-1.5-2-3.4-2.1-5.4zm9.2.1l3.5 2c-.7 1.1-1.4 2-2.2 2.8l-3-1.8c-.1.1 1.7-3 1.7-3zm-5.9 1.8l2.8 1.6-2 3.4c-.7-.7-1.1-1.9-1-3.4 0-.5.1-1 .2-1.6zm10.2.7l3 1.7c-.7 1.1-1.6 1.9-2.5 2.6l-2.6-1.5c.7-.8 1.5-1.7 2.1-2.8zm-6.6 1.4l2.8 1.6c-.4.4-.9.7-1.3 1-1.3.8-2.5 1.1-3.5.8l2-3.4zm3.8 2.3l2.3 1.3c-1.8.9-3.8 1.1-5.7.8.6-.2 2.7-1.3 3.4-2.1zm-.7 5.8l1.2 2.4h-2.4l1.2-2.4zm-2 3.4h4c.6 0 1 .4 1 1h-6c0-.6.4-1 1-1zm-3 2h10c.6 0 1 .4 1 1H12c0-.6.4-1 1-1z"/>
</svg>