<svg xmlns="http://www.w3.org/2000/svg" viewBox="0 0 36 36">
<path fill="#0D6AB6" d="M29.6 3.4h-4.2c-.3 0-.5.2-.5.5s.2.5.5.5h2.7L13.4 16.3l-7.1-2.1c-.3-.1-.5.1-.6.3-.1.3.1.5.3.6l7.4 2.2h.1c.1 0 .2 0 .3-.1L29.1 4.9v3.3c0 .3.2.5.5.5s.5-.2.5-.5V3.9c0-.3-.2-.5-.5-.5zM11 30.4H7.9c-.3 0-.5-.2-.5-.5v-10c0-.3.2-.5.5-.5H11c.3 0 .5.2.5.5v10c0 .3-.2.5-.5.5zm-2.6-1h2.1v-9H8.4v9zM16.6 30.4h-3.1c-.3 0-.5-.2-.5-.5v-8.1c0-.3.2-.5.5-.5h3.1c.3 0 .5.2.5.5v8.1c0 .3-.2.5-.5.5zm-2.6-1h2.1v-7.1H14v7.1zM22.2 30.4h-3.1c-.3 0-.5-.2-.5-.5V17.1c0-.3.2-.5.5-.5h3.1c.3 0 .5.2.5.5v12.8c0 .3-.2.5-.5.5zm-2.6-1h2.1V17.6h-2.1v11.8zM27.9 30.3h-3.1c-.3 0-.5-.2-.5-.5V12.4c0-.3.2-.5.5-.5h3.1c.3 0 .5.2.5.5v17.4c0 .3-.2.5-.5.5zm-2.6-1h2.1V12.9h-2.1v16.4z"/>
<path fill="#0D6AB6" d="M30.9 32.5H4.8c-.3 0-.5-.2-.5-.5s.2-.5.5-.5h26.1c.3 0 .5.2.5.5s-.2.5-.5.5z"/>
</svg>