<svg xmlns="http://www.w3.org/2000/svg" width="36" height="36">
<path fill="#0D6AB6" d="M32.5 7H31v-.5c0-.3-.2-.5-.5-.5h-11c-.6 0-1.1.3-1.5.7-.4-.4-.9-.7-1.5-.7h-11c-.3 0-.5.2-.5.5V7H3.5c-.3 0-.5.2-.5.5v21c0 .3.2.5.5.5h12c.5.9 1.4 1.5 2.5 1.5s2-.6 2.5-1.5h12c.3 0 .5-.2.5-.5v-21c0-.3-.2-.5-.5-.5zM24 7h3v8.4l-1.2-.9c-.2-.1-.4-.1-.6 0l-1.2.9V7zm-5.5 1c0-.6.4-1 1-1H23v9.4c0 .3.2.5.5.5.1 0 .2 0 .3-.1l1.7-1.3 1.7 1.3c.2.2.5.1.7-.1.1-.1.1-.2.1-.3V7h2v19H19.5c-.4 0-.7.2-1 .4V8zM6 7h10.5c.6 0 1 .4 1 1v18.4c-.3-.2-.6-.4-1-.4H6V7zm25.9 2.2V28H20.3c-.2 0-.4.1-.5.3-.3.7-1 1.2-1.8 1.2s-1.5-.5-1.8-1.2c-.1-.2-.3-.3-.5-.3H4V8h1v18.5c0 .3.2.5.5.5h11c.6 0 1 .4 1 1v.4c0 .3.2.5.5.5s.5-.2.5-.5v-.6c.1-.5.4-.8.9-.8h11c.3 0 .5-.2.5-.5V8h1v1.2z"/>
</svg>