<svg xmlns="http://www.w3.org/2000/svg" width="36" height="36">
<circle fill="#0D6AB6" cx="18.1" cy="10.7" r="1.2"/>
<path fill="#0D6AB6" d="M18.6 34.1h-1v-1h1v1zM19.6 34.1l-.1-1c.3 0 .6 0 1-.1l.1 1c-.3 0-.7.1-1 .1zM16.5 34c-.3 0-.7-.1-1-.1l.1-1c.3 0 .6.1 1 .1l-.1 1zM21.7 33.9l-.2-1c.3 0 .6-.1 1-.2l.2 1c-.4.1-.7.1-1 .2zM14.5 33.7c-.3-.1-.7-.1-1-.2l.2-1c.3.1.6.1 1 .2l-.2 1zM23.7 33.5l-.2-1 .9-.3.3 1c-.4.1-.7.2-1 .3zM12.5 33.3c-.3-.1-.7-.2-1-.3l.3-1 .9.3-.2 1z"/>
<path fill="#0D6AB6" d="M32.6 27.8c-2 1.6-4 2.8-5.9 3.6l.1-.8-.6-1.8.4-.2c.2-.1.4-.4.3-.6l-5.2-15.7c.2-.5.3-1 .3-1.6 0-2-1.5-3.6-3.4-3.8v-.7h.7c.3 0 .5-.2.5-.5V2.4c0-.3-.2-.5-.5-.5h-2.4c-.3 0-.5.2-.5.5v3.3c0 .3.2.5.5.5h.7v.7c-1.9.2-3.4 1.8-3.4 3.8 0 .6.1 1.1.3 1.6L9.3 27.9c-.1.2 0 .5.3.6l.4.2-.6 1.8.1.7c-3.5-1.5-5.7-3.3-6-3.5l-.6.8c.1.1 2.6 2.2 6.7 3.8l.4-.8c-.1 0-.2-.1-.2-.1l.5-.5.7-1.8.5.2h.4l.3-.3 3-7.6c.4.1 1.2.3 2.1.4v.8c0 .5.4.8.8.8.5 0 .8-.4.8-.8v-.7c.7 0 1.4-.2 2.1-.4l3 7.6c0 .1.1.2.3.3h.4l.5-.2.7 1.8.6.6c-.2.1-.5.2-.7.3l.4.9c2.3-.9 4.6-2.2 7-4.1l-.6-.9zM17.4 5.2V2.9h1.4v2.3h-1.4zm.7 2.6c1.6 0 2.9 1.3 2.9 2.9s-1.3 2.9-2.9 2.9-2.9-1.3-2.9-2.9 1.3-2.9 2.9-2.9zm-6.7 20.4l-.9-.4 4.8-14.6c.4.5 1 .8 1.6 1l-5.5 14zm7.5-7.3v-.7c0-.5-.4-.8-.8-.8-.5 0-.8.4-.8.8v.6c-.8-.1-1.4-.2-1.8-.3l2.4-6h.4l2.4 6.1-1.8.3zm5.9 7.3l-3-7.6-2.5-6.3c.6-.2 1.2-.6 1.6-1l4.8 14.6-.9.3z"/>
</svg>