<svg xmlns="http://www.w3.org/2000/svg" width="36" height="36">
<path fill="#0D6AB6" d="M33 3.2c0-.4-.4-.7-.8-.7-10.1.1-17.4 2.9-21.6 8.3-5.3 6.8-3.7 15.3-3.4 16.7L2 32.9c-.3.3-.3.8 0 1.1.1.1.3.2.5.2s.4-.1.5-.2l5.5-5.6c1.6.2 3.1.3 4.6.3 5.6 0 10.1-1.6 13.5-4.8 7.7-7.3 6.5-20.1 6.4-20.7zm-7.4 19.6c-3.7 3.5-9 4.9-15.7 4.2l8.2-8.3 8-1.6c.4-.1.7-.5.6-.9-.1-.4-.5-.7-.9-.6L20 16.7l6-6.1c.3-.3.3-.8 0-1.1-.3-.3-.8-.3-1.1 0L14.5 20.2V14c0-.4-.3-.8-.8-.8s-.7.4-.7.8v7.7l-4.4 4.5c-.4-2.6-.8-9.2 3.3-14.4 3.8-4.9 10.4-7.5 19.7-7.7.1 2.7.2 12.8-6 18.7z"/>
</svg>