<svg xmlns="http://www.w3.org/2000/svg" width="36" height="36">
<path fill="#0D6AB6" d="M29.4 20.4h-.2c-.3-.1-.4-.4-.3-.7.3-.6 0-1.4 0-1.4-.1-.3 0-.5.3-.7s.5 0 .7.3c0 0 .5 1.1 0 2.2-.2.1-.3.3-.5.3z"/>
<circle fill="#0D6AB6" cx="26.1" cy="18.9" r="2"/>
<path fill="#0D6AB6" d="M28.3 21c-1.1 1.1-2.7 1.2-3.9.3-1.2-.9-1.6-2.5-.9-3.8s2.2-1.9 3.6-1.4c.4.2.8.4 1.1.7.5.5 1.2-.2.7-.7-.4-.4-.9-.7-1.5-.9-.5-.2-.9-.2-1.4-.2-1.4 0-2.7.8-3.4 2.1-.9 1.7-.4 3.9 1.2 5.1.6.4 1.2.7 1.9.7v6.8c0 1-.8 1.8-1.8 1.8s-1.8-.8-1.8-1.8v-3c0-1.5-1.2-2.8-2.8-2.8-1.5 0-2.8 1.2-2.8 2.8v3c0 1-.8 1.8-1.8 1.8s-1.8-.8-1.8-1.8V24c.5-.2.9-.7.9-1.3v-2.3c1.2-.3 2.4-.8 3.2-1.7.4-.3.5-.9.3-1.3.6-.9 1-2 1-3.1V7.8c0-.8-.4-1.5-1-2-.1-1.1-1-2-2.2-2-1.2 0-2.2 1-2.2 2.2s1 2.2 2.2 2.2c.8 0 1.4-.4 1.8-1 .1.2.2.4.2.6v4.4c-.4 2-2.3 3.6-4.6 3.6s-4.2-1.5-4.7-3.6V7.8c0-.3.1-.6.3-.8.4.7 1.1 1.1 1.9 1.1 1.2 0 2.2-1 2.2-2.2s-1-2.2-2.2-2.2c-1 0-1.8.7-2.1 1.6-1 .4-1.4 1.6-1.4 2.2V14c0 1.1.4 2.2 1 3.1-.2.5-.1 1 .3 1.4 1 1 2.2 1.4 3.2 1.7v2.4c0 .6.4 1.1.9 1.3v5.6c0 1.5 1.2 2.8 2.8 2.8 1.5 0 2.8-1.2 2.8-2.8v-3c0-1 .8-1.8 1.8-1.8s1.8.8 1.8 1.8v3c0 1.5 1.2 2.8 2.8 2.8 1.5 0 2.8-1.2 2.8-2.8v-6.8c.9-.1 1.7-.5 2.3-1.1.5-.4-.2-1.1-.7-.6zM15.1 7.1c-.7 0-1.2-.5-1.2-1.2s.5-1.2 1.2-1.2 1.2.5 1.2 1.2-.5 1.2-1.2 1.2zM10 4.8c.7 0 1.2.5 1.2 1.2s-.5 1.2-1.2 1.2S8.8 6.7 8.8 6s.5-1.2 1.2-1.2zm2.4 13c-1.1 0-2.1-.4-2.8-1.1-.2-.2-.6-.4-.9-.4h-.2c-.4-.5-.7-1.2-.7-2 1 1.4 2.7 2.2 4.6 2.2 1.9 0 3.6-.9 4.6-2.2 0 .8-.3 1.4-.7 2.1-.4-.1-.8 0-1.1.3-.7.7-1.8 1.1-2.8 1.1z"/>
</svg>