<svg xmlns="http://www.w3.org/2000/svg" width="36" height="36">
<path fill="#0D6AB6" d="M21.5 13c-.3 0-.5.2-.5.5s.2.5.5.5h4c.3 0 .5-.2.5-.5s-.2-.5-.5-.5h-4zM14.5 15c-.3 0-.5.2-.5.5s.2.5.5.5h11c.3 0 .5-.2.5-.5s-.2-.5-.5-.5h-11zM14.5 17c-.3 0-.5.2-.5.5s.2.5.5.5h11c.3 0 .5-.2.5-.5s-.2-.5-.5-.5h-11zM14.5 19c-.3 0-.5.2-.5.5s.2.5.5.5h4c.3 0 .5-.2.5-.5s-.2-.5-.5-.5h-4zM21.5 25c-.3 0-.5.2-.5.5s.2.5.5.5h4c.3 0 .5-.2.5-.5s-.2-.5-.5-.5h-4zM21.5 27c-.3 0-.5.2-.5.5s.2.5.5.5h4c.3 0 .5-.2.5-.5s-.2-.5-.5-.5h-4z"/>
<path fill="#0D6AB6" d="M29 10l-6-6c-.1-.1-.2-.1-.4-.1H9.5c-.3-.1-.5.2-.5.4V6H7.5c-.3 0-.5.2-.5.5v26c0 .3.2.5.5.5h19c.3 0 .5-.2.5-.5v-1.6h1.7c.3 0 .5-.2.5-.5v-20c0-.2-.1-.3-.2-.4zm-6-4.6l4.4 4.3H23V5.4zM26 32H8V7h1v23.5c0 .3.2.5.5.5H26v1zm-16-2.1V4.8h12v5.4c0 .3.2.5.5.5h5.7v19.2H10z"/>
<path fill="#0D6AB6" d="M10.9 6H12v1.1h-1.1zM10.9 8H12v1.1h-1.1zM10.9 10H12v1.1h-1.1zM10.9 12H12v1.1h-1.1zM10.9 14H12v1.1h-1.1zM10.9 16H12v1.1h-1.1zM10.9 18H12v1.1h-1.1zM10.9 20H12v1.1h-1.1zM10.9 22H12v1.1h-1.1zM10.9 24H12v1.1h-1.1zM10.9 26H12v1.1h-1.1zM10.9 28H12v1.1h-1.1z"/>
</svg>