<svg xmlns="http://www.w3.org/2000/svg" width="36" height="36">
<path fill="#0D6AB6" d="M16.5 3.238c-1.4 0-2.5 1.1-2.5 2.5 0 .4.1.8.3 1.1-.6.8-1.1 1.7-1.6 2.7-.2 0-5.3-.8-6.8 2.2-.7 1.3-.6 2.8 0 4.5.3.8.8 1.7 1.5 2.5-.1.2-3.4 3.2-1.5 7 1.9 3.1 6.6 2.3 6.8 2.2.4.9.8 1.7 1.3 2.4 1.1 1.5 2.5 2.4 4 2.4 2.1 0 3.8-1.7 5-4.2l.3-.6c2.2 0 5.8-.4 6.8-2.2.8-1.4.6-3.3-.4-5.3.4-.4.7-1.1.7-1.7 0-.7-.3-1.3-.7-1.7 1-2 1.3-3.8.4-5.3-1-1.8-3.7-2.6-6.8-2.2 0-.1-1.8-4-4.5-4.7-.3-.9-1.2-1.6-2.3-1.6zm0 1c.8 0 1.5.7 1.5 1.5s-.7 1.5-1.5 1.5-1.5-.7-1.5-1.5.7-1.5 1.5-1.5zm2.5 1.7c1.2.5 2.4 1.8 3.3 3.8-1.4.2-2.8.7-4.3 1.3-1.5-.6-2.9-1-4.3-1.3.4-.8.8-1.5 1.2-2.1.4.4 1 .6 1.6.6 1.3 0 2.4-1 2.5-2.3zm6 4.5c2.1 0 3.6.6 4.3 1.8.6 1 .5 2.5-.4 4.2-.3-.1-.6-.2-1-.2s-.9.1-1.2.3c-.6-.6-1.3-1.1-1.9-1.7-.2-1.6-.6-3.1-1.1-4.4H25zm-12.7 0c-.5 1.3-.8 2.8-1 4.3-1.3 1-2.3 2-3.2 3.1-.5-.7-.9-1.4-1.2-2.1-.6-1.5-.6-2.7-.1-3.6.6-1 2.1-1.7 4.3-1.7h1.2zm10.4.2c.4 1 .7 2.2.9 3.4-.6-.4-1.3-.9-2-1.3l-.1-.1c-.7-.4-1.5-.8-2.2-1.1 1.2-.4 2.3-.7 3.4-.9zm-9.4 0c1.1.2 2.2.5 3.3.9-.7.3-2.8 1.3-4.3 2.5.4-1.2.7-2.4 1-3.4zm4.7 1.4c1 .4 2 .9 3 1.5s1.9 1.2 2.8 1.8c.1 1.1.2 2.2.2 3.3 0 1.2-.1 2.3-.2 3.3-.9.7-1.8 1.3-2.8 1.8-1 .6-2 1.1-3 1.5-1-.4-2-.9-3-1.5-.4-.2-.8-.5-1.2-.7.1-.3.2-.6.2-1 0-1.1-.8-2-2-2.2v-1.3c0-1.1.1-2.3.2-3.3.9-.6 1.8-1.3 2.8-1.8 1-.5 2-1 3-1.4zm0 4.2c-1.4 0-2.5 1.1-2.5 2.5s1.1 2.5 2.5 2.5 2.5-1.1 2.5-2.5-1.1-2.5-2.5-2.5zm-6.9.1c-.1.8-.1 1.6-.1 2.5v1c-.4.1-.7.2-1 .4-.5-.5-1-1-1.4-1.5.8-.8 1.6-1.6 2.5-2.4zm13.8 0c.4.3.7.6 1 .9-.3.4-.5.9-.5 1.5s.2 1.1.5 1.5c-.3.3-.7.6-1 1 .1-.8.1-1.6.1-2.4v-.1c0-.8 0-1.6-.1-2.4zm-6.9.9c.8 0 1.5.7 1.5 1.5s-.7 1.5-1.5 1.5-1.5-.7-1.5-1.5.7-1.5 1.5-1.5zm9.9 0c.8 0 1.5.7 1.5 1.5 0 .5-.2.9-.6 1.2-.3.2-.6.3-.9.3-.8 0-1.5-.7-1.5-1.5 0-.4.2-.8.5-1.1l.1-.1c.3-.2.6-.3.9-.3zm-19.8 2.3c.4.5.7.8 1.2 1.3-.2.4-.3.9-.3 1.4.1 1.9 1.6 2.5 2.7 2.5.2.8.4 1.5.7 2.2-.1 0-4 .7-5.6-1.8-.8-1.3-.4-3.3 1.1-5.4l.2-.2zm3.4 1.2c.8 0 1.5.7 1.5 1.5s-.7 1.5-1.5 1.5-1.5-.7-1.5-1.5.7-1.5 1.5-1.5zm15.2.2c.4.2.8.3 1.2.3.3 0 .7-.1 1-.2.9 1.7 1 3.2.4 4.2-.8 1.3-3.4 1.8-5.6 1.7.5-1.3.8-2.7 1-4.2.7-.7 1.4-1.2 2-1.8zm-3.1 2.5c-.2 1.2-.5 2.4-.9 3.4-1.3-.1-2.2-.5-3.4-.9.7-.3 1.5-.7 2.2-1.1.7-.4 1.4-.9 2.1-1.4zm-10.3.6c.4.3.8.5 1.3.8.7.4 1.5.8 2.2 1.1-1.2.4-2.3.7-3.3.9-.3-.7-.5-1.5-.7-2.4.1-.1.3-.2.5-.4zm4.7 2.5c1.5.6 2.9 1 4.3 1.3 0 .1-.1.2-.1.3-1.1 2.4-2.6 3.7-4.1 3.7-1.1 0-2.2-.7-3.2-2-.4-.5-.8-1.2-1.1-2 1.3-.3 2.7-.7 4.2-1.3z"/>
</svg>