<svg xmlns="http://www.w3.org/2000/svg" width="36" height="36">
<path fill="#0D6AB6" d="M13.1 8C11.9 8 11 9 11 10.1v7.1c0 1.2 1 2.1 2.1 2.1h6.2l1.9 2.4c.2.2.5.3.7.1l.1-.1 1.9-2.4h1c1.2 0 2.1-1 2.1-2.1v-7.1C27 8.9 26 8 24.9 8H13.1zm0 1h11.7c.6 0 1.1.5 1.1 1.1v7.1c0 .6-.5 1.1-1.1 1.1h-1.2c-.2 0-.3.1-.4.2l-1.7 2.1-1.7-2.1c-.1-.1-.2-.2-.4-.2H13c-.6 0-1.1-.5-1.1-1.1v-7.1c.1-.6.6-1.1 1.2-1.1z"/>
<path fill="#0D6AB6" d="M24.2 33.8H13.8c-.1 0-.3-.1-.4-.2-.1-.1-.1-.3-.1-.4.3-1.4.2-3.4.1-4.3l-2.3.2c-.6.1-1.1 0-1.4-.3-.5-.4-.6-1.1-.6-1.1l-.8-4.9H5.5c-.2 0-.3-.1-.4-.2s-.1-.4-.1-.5l2.3-7.3c0-4.2 1.2-7.5 3.5-9.8 3.4-3.3 7.9-3.1 8.1-3.1 3.2-.1 5.8.8 7.8 2.8 4 4 3.9 10.8 3.9 11 0 5.8-4.3 9.8-4.9 10.3-1.4 2.3-1 7.3-1 7.3 0 .1 0 .3-.1.4-.1 0-.3.1-.4.1zm-9.8-1h9.3c-.1-1.5-.2-5.4 1.2-7.5l.1-.1s4.6-4 4.6-9.6c0-.1.1-6.6-3.6-10.3-1.8-1.7-4.1-2.6-7-2.5-.1 0-4.3-.1-7.4 2.9-2.1 2.1-3.2 5.2-3.2 9.1v.1l-2.1 6.8h2.5c.2 0 .5.2.5.4l.9 5.4s0 .3.2.5c.2.1.4.2.7.1l2.8-.3c.1 0 .3 0 .4.1.1.1.2.2.2.3-.1.2.1 2.6-.1 4.6zm-6.6-18z"/>
<path fill="#0D6AB6" d="M14.7 15.8c-1 0-1.9-.8-1.9-1.9s.8-1.9 1.9-1.9 1.9.8 1.9 1.9-.9 1.9-1.9 1.9zm0-2.8c-.5 0-.9.4-.9.9s.4.9.9.9.9-.4.9-.9-.4-.9-.9-.9zM19 15.8c-1 0-1.9-.8-1.9-1.9S18 12 19 12c1 0 1.9.8 1.9 1.9s-.9 1.9-1.9 1.9zm0-2.8c-.5 0-.9.4-.9.9s.4.9.9.9.9-.4.9-.9-.4-.9-.9-.9zM23.3 15.8c-1 0-1.9-.8-1.9-1.9s.8-1.9 1.9-1.9 1.9.8 1.9 1.9-.8 1.9-1.9 1.9zm0-2.8c-.5 0-.9.4-.9.9s.4.9.9.9.9-.4.9-.9-.4-.9-.9-.9z"/>
</svg>