<svg xmlns="http://www.w3.org/2000/svg" width="36" height="36">
<path fill="#0D6AB6" d="M29.1 25.4c-.3 0-.5.2-.5.5v.9c0 .7 1 .7 1 0v-.9c0-.3-.2-.5-.5-.5z"/>
<path fill="#0D6AB6" d="M33.3 31.1h-3.7v-2c0-.7-1-.7-1 0v2h-3.1v-6.2h.5c.7 0 .7-1 0-1H14.6c-.7 0-.7 1 0 1h.4v6.2h-3.2V8.2h16.7v15.7c0 .7 1 .7 1 0V8.2h.5c.3-.1.5-.3.5-.6V4.5c0-.3-.2-.5-.5-.5H6.1c-.3 0-.6.2-.6.5v3.1c0 .3.2.5.5.6h.5v22.9H2.9c-.7 0-.7 1 0 1H33.3c.7 0 .7-.9 0-1zM25.4 5h4.2v2.1h-4.2V5zM16 5h8.4v2.1h-.8H16V5zm-4.2 0H15v2.1h-3.2V5zm-1 26.1H7.6V8.2h3.1v23l.1-.1zm-.1-24H6.6V5h4.1v2.1zm9 24H16v-6.2h3.7v6.2zm4.7 0h-3.7v-6.2h3.7v6.2z"/>
<path fill="#0D6AB6" d="M16.6 16.6h-3.2c-.3 0-.5-.2-.5-.5v-3.3c0-.3.2-.5.5-.5h3.2c.3 0 .5.2.5.5v3.3c0 .3-.2.5-.5.5zm-2.7-1h2.2v-2.3h-2.2v2.3zM27 16.6h-3.2c-.3 0-.5-.2-.5-.5v-3.3c0-.3.2-.5.5-.5H27c.3 0 .5.2.5.5v3.3c0 .3-.2.5-.5.5zm-2.7-1h2.2v-2.3h-2.2v2.3zM21.8 16.6h-3.2c-.3 0-.5-.2-.5-.5v-3.3c0-.3.2-.5.5-.5h3.2c.3 0 .5.2.5.5v3.3c0 .3-.2.5-.5.5zm-2.7-1h2.2v-2.3h-2.2v2.3zM16.6 21.9h-3.2c-.3 0-.5-.2-.5-.5v-3.3c0-.3.2-.5.5-.5h3.2c.3 0 .5.2.5.5v3.3c0 .3-.2.5-.5.5zm-2.7-1h2.2v-2.3h-2.2v2.3zM27 21.9h-3.2c-.3 0-.5-.2-.5-.5v-3.3c0-.3.2-.5.5-.5H27c.3 0 .5.2.5.5v3.3c0 .3-.2.5-.5.5zm-2.7-1h2.2v-2.3h-2.2v2.3zM21.8 21.9h-3.2c-.3 0-.5-.2-.5-.5v-3.3c0-.3.2-.5.5-.5h3.2c.3 0 .5.2.5.5v3.3c0 .3-.2.5-.5.5zm-2.7-1h2.2v-2.3h-2.2v2.3z"/>
</svg>