<svg id="Layer_1" xmlns="http://www.w3.org/2000/svg" width="1331.4" height="1344.6"><style>.st0{fill:none;stroke:#153e5f;stroke-width:1.4303;stroke-miterlimit:10}.st1{fill:#153e5f}.st3{display:inline}.st4{fill:none;stroke:#15588f;stroke-width:.9149;stroke-miterlimit:10}.st5{fill:#15588f}</style>
<path class="st0" d="M962.2 932.3L850.6 809l-35 161.8zM1276 693.8l-142.7 2.4 61.9 184.9zM1276 693.8l-80.8 187.3 130.5 132.1z"/>
<path class="st0" d="M1124.4 559.5l8.9 136.7 142.7-2.4zM1124.4 559.5l79.4-135.7L990.9 502zM1133.1 307.1l70.7 116.7L990.9 502zM834.1 103l-456.6 71 407.7-13.8zM1046.4 135.6l-72.6 25.2 133.3.2z"/>
<path class="st0" d="M1046.4 135.6L1033.3 9.9l73.8 151.1zM877.4 33.1L377.5 174l456.6-71z"/>
<path class="st0" d="M877.4 33.1l47 6.8 112.7.1-1.2-9.9zM358.1 206.3l19.4-32.3-171.9 78.6zM408.1 329l-50-122.7-152.5 46.3zM59.5 264.2l146.1-11.6L59.4 376.9z"/>
<path class="st0" d="M59.5 264.2l318-90.2-171.9 78.6zM173.8 778l106.4 190.4-41.6 139.1zM173.8 778l-60.6-215.9 166.4 136z"/>
<path class="st0" d="M327.8 835.8l-154-57.8 106.4 190.4zM327.8 835.8l102-107.5 121.9 144.9z"/>
<path class="st0" d="M327.8 835.8l-48.2-137.7 150.2 30.2z"/>
<path class="st0" d="M327.8 835.8l-48.2-137.7L173.8 778zM16.3 348.5L173.8 778l64.8 329.5z"/>
<path class="st0" d="M16.3 348.5l96.9 213.6L173.8 778zM16.3 348.5l43.1 28.4 53.8 185.2z"/>
<path class="st0" d="M16.3 348.5l43.2-84.3-.1 112.7z"/>
<path class="st0" d="M11.3 302.8l48.2-38.6-43.2 84.3zM722.7 735.5l97.3-67.1L850.6 809zM874.3 523.5l-110.7-21.1 56.4 166zM874.3 523.5l.2-133.2L990.9 502z"/>
<path class="st0" d="M874.3 523.5l.2-133.2-110.9 112.1zM974.7 629.6L820 668.4 850.6 809zM974.7 629.6l149.7-70.1 8.9 136.7z"/>
<path class="st0" d="M974.7 629.6L874.3 523.5 820 668.4zM974.7 629.6L990.9 502l133.5 57.5z"/>
<path class="st0" d="M974.7 629.6L874.3 523.5 990.9 502zM681.4 360.3l193.1 30-110.9 112.1z"/>
<path class="st0" d="M681.4 360.3l122.4-150.2 70.7 180.2z"/>
<path class="st0" d="M681.4 360.3l103.8-200.1 18.6 49.9zM948.2 305.4l-73.7 84.9L990.9 502z"/>
<path class="st0" d="M948.2 305.4l184.9 1.7L990.9 502zM948.2 305.4l-144.4-95.3 70.7 180.2zM948.2 305.4l25.6-144.6 133.3.2z"/>
<path class="st0" d="M948.2 305.4l-144.4-95.3 170-49.3z"/>
<path class="st0" d="M825.1 142.4l-39.9 17.8 18.6 49.9z"/>
<path class="st0" d="M825.1 142.4l148.7 18.4-170 49.3zM825.1 142.4l9-39.4-48.9 57.2z"/>
<path class="st0" d="M943.1 104.1l-118 38.3 148.7 18.4z"/>
<path class="st0" d="M943.1 104.1l-109-1.1-9 39.4z"/>
<path class="st0" d="M943.1 104.1l-65.7-71-43.3 69.9z"/>
<path class="st0" d="M943.1 104.1l-65.7-71 47 6.8zM1009.5 93l36.9 42.6-72.6 25.2z"/>
<path class="st0" d="M1009.5 93l-66.4 11.1 30.7 56.7zM1009.5 93l27.6-53 9.3 95.6z"/>
<path class="st0" d="M1009.5 93l-85.1-53.1 18.7 64.2z"/>
<path class="st0" d="M1009.5 93l-85.1-53.1 112.7.1zM1041.8 776.1l91.5-79.9 61.9 184.9zM1041.8 776.1L850.6 809l111.6 123.3z"/>
<path class="st0" d="M1041.8 776.1l-67.1-146.5L850.6 809z"/>
<path class="st0" d="M1041.8 776.1l-67.1-146.5 158.6 66.6zM1113.8 1003l-72-226.9 153.4 105z"/>
<path class="st0" d="M1113.8 1003l-72-226.9-79.6 156.2zM1113.8 1003l81.4-121.9 130.5 132.1zM797.5 1049.8l-108.7-85.3 126.8 6.3zM561.2 1280.2l-49.8-157.7-96.8 132.6z"/>
<path class="st0" d="M447.7 1333.6l-33.1-78.5 146.6 25.1z"/>
<path class="st0" d="M447.7 1333.6l-33.1-78.5.6 65.4z"/>
<path class="st0" d="M324.7 1326.3l89.9-71.2.6 65.4z"/>
<path class="st0" d="M324.7 1326.3l90.5-5.8 32.5 13.1z"/>
<path class="st0" d="M302.5 1271.2l112.1-16.1-89.9 71.2zM363 1048.8l-82.8-80.4-41.6 139.1zM363 1048.8l148.4 73.7-96.8 132.6z"/>
<path class="st0" d="M363 1048.8l-60.5 222.4 112.1-16.1z"/>
<path class="st0" d="M363 1048.8l-124.4 58.7 63.9 163.7zM405.3 968.9l-125.1-.5 82.8 80.4z"/>
<path class="st0" d="M405.3 968.9l-77.5-133.1-47.6 132.6z"/>
<path class="st0" d="M405.3 968.9l-77.5-133.1 223.9 37.4zM535.5 1000.8l-172.5 48 148.4 73.7zM535.5 1000.8l16.2-127.6 137.1 91.3z"/>
<path class="st0" d="M535.5 1000.8l-130.2-31.9-42.3 79.9zM535.5 1000.8l16.2-127.6-146.4 95.7zM695.4 1065l-159.9-64.2-24.1 121.7z"/>
<path class="st0" d="M695.4 1065l-159.9-64.2 153.3-36.3zM695.4 1065l-184 57.5 49.8 157.7zM695.4 1065l167.1 88.8-301.3 126.4z"/>
<path class="st0" d="M695.4 1065l102.1-15.2 65 104z"/>
<path class="st0" d="M695.4 1065l-6.6-100.5 108.7 85.3zM698.1 869.6l-9.3 94.9 126.8 6.3z"/>
<path class="st0" d="M698.1 869.6L850.6 809l-35 161.8zM698.1 869.6l-146.4 3.6 137.1 91.3z"/>
<path class="st0" d="M698.1 869.6l24.6-134.1L850.6 809zM584.9 726.3l-33.2 146.9 146.4-3.6z"/>
<path class="st0" d="M584.9 726.3l137.8 9.2-24.6 134.1zM584.9 726.3l-155.1 2 121.9 144.9z"/>
<path class="st0" d="M584.9 726.3l-54.4-137.8-100.7 139.8zM650.8 600.7L820 668.4l-97.3 67.1zM650.8 600.7l-65.9 125.6 137.8 9.2z"/>
<path class="st0" d="M650.8 600.7l112.8-98.3 56.4 166zM650.8 600.7l-120.3-12.2 54.4 137.8z"/>
<path class="st0" d="M598.7 484.7l-68.2 103.8 120.3 12.2zM598.7 484.7l164.9 17.7-112.8 98.3z"/>
<path class="st0" d="M598.7 484.7l-214.4-25.9 146.2 129.7zM598.7 484.7l82.7-124.4 82.2 142.1z"/>
<path class="st0" d="M598.7 484.7L408.1 329l-23.8 129.8zM336.1 560.9l-56.5 137.2 150.2 30.2z"/>
<path class="st0" d="M336.1 560.9l194.4 27.6-100.7 139.8zM336.1 560.9l-222.9 1.2 166.4 136z"/>
<path class="st0" d="M336.1 560.9l48.2-102.1 146.2 129.7zM237.9 413.2L113.2 562.1l222.9-1.2z"/>
<path class="st0" d="M237.9 413.2l146.4 45.6-48.2 102.1zM237.9 413.2L59.4 376.9l53.8 185.2z"/>
<path class="st0" d="M237.9 413.2L408.1 329l-23.8 129.8z"/>
<path class="st0" d="M237.9 413.2l-32.3-160.6L408.1 329z"/>
<path class="st0" d="M237.9 413.2l-32.3-160.6L59.4 376.9zM542.1 261.4l139.3 98.9-82.7 124.4zM542.1 261.4l-134 67.6 190.6 155.7z"/>
<path class="st0" d="M542.1 261.4l243.1-101.2-103.8 200.1zM542.1 261.4l-184-55.1 50 122.7z"/>
<path class="st0" d="M542.1 261.4L377.5 174l407.7-13.8z"/>
<path class="st0" d="M542.1 261.4L377.5 174l-19.4 32.3zM926.9 1100.3L815.6 970.8l146.6-38.5zM926.9 1100.3l-64.4 53.5 141.1 6.2z"/>
<path class="st0" d="M926.9 1100.3l186.9-97.3-110.2 157zM926.9 1100.3l-129.4-50.5 65 104z"/>
<path class="st0" d="M926.9 1100.3l35.3-168 151.6 70.7zM926.9 1100.3L815.6 970.8l-18.1 79z"/>
<g>
<path class="st1" d="M808.5 969.7l3.4-4.8 5.9-.3 4 4.4-1 5.8-5.2 2.9-5.4-2.3zM833.6 806.5l8.2-11.6 14.2-.8 9.5 10.6-2.3 14-12.5 6.9-13.1-5.4zM953.7 931.1l4.1-5.8 7.1-.4 4.7 5.3-1.1 7-6.3 3.4-6.5-2.7zM1183.9 879.4l5.4-7.7 9.5-.5 6.3 7-1.5 9.4-8.3 4.6-8.8-3.7zM1122 694.6l5.5-7.8 9.5-.5 6.3 7.1-1.6 9.3-8.3 4.6-8.7-3.6zM1264.7 692.1l5.5-7.7 9.4-.6 6.4 7.1-1.6 9.3-8.3 4.6-8.8-3.6zM1315.4 1011l4.1-5.8 7.1-.4 4.8 5.3-1.2 7-6.2 3.5-6.6-2.7z"/>
<path class="st1" d="M1183.9 879.4l5.4-7.7 9.5-.5 6.3 7-1.5 9.4-8.3 4.6-8.8-3.7zM1264.7 692.1l5.5-7.7 9.4-.6 6.4 7.1-1.6 9.3-8.3 4.6-8.8-3.6z"/>
<path class="st1" d="M1264.7 692.1l5.5-7.7 9.4-.6 6.4 7.1-1.6 9.3-8.3 4.6-8.8-3.6zM1122 694.6l5.5-7.8 9.5-.5 6.3 7.1-1.6 9.3-8.3 4.6-8.7-3.6zM1107.7 557.1l8.1-11.4 13.9-.8 9.4 10.4-2.3 13.8-12.3 6.7-12.9-5.3zM1192.5 422.2l5.5-7.8 9.4-.5 6.4 7-1.6 9.4-8.3 4.6-8.7-3.6z"/>
<path class="st1" d="M1192.5 422.2l5.5-7.8 9.4-.5 6.4 7-1.6 9.4-8.3 4.6-8.7-3.6zM1124.6 305.9l4.1-5.8 7.1-.5 4.7 5.3-1.1 7-6.3 3.5-6.5-2.7zM773.9 158.5l5.5-7.7 9.4-.6 6.4 7.1-1.6 9.3-8.3 4.6-8.7-3.6zM366.2 172.4l5.4-7.8 9.5-.5 6.3 7-1.5 9.4-8.3 4.6-8.8-3.6zM822.9 101.3l5.4-7.7 9.5-.6 6.3 7.1-1.6 9.3-8.2 4.6-8.8-3.6zM1095.8 159.4l5.4-7.8 9.5-.5 6.3 7-1.5 9.4-8.3 4.6-8.8-3.6zM962.5 159.1l5.5-7.7 9.5-.6 6.3 7.1-1.6 9.3-8.3 4.6-8.7-3.6zM1035.1 133.9l5.5-7.7 9.5-.6 6.3 7.1-1.6 9.3-8.3 4.6-8.7-3.6z"/>
<path class="st1" d="M1095.8 159.4l5.4-7.8 9.5-.5 6.3 7-1.5 9.4-8.3 4.6-8.8-3.6zM1022.1 8.3l5.4-7.8 9.5-.5 6.3 7.1-1.6 9.3-8.2 4.6-8.8-3.6zM1035.1 133.9l5.5-7.7 9.5-.6 6.3 7.1-1.6 9.3-8.3 4.6-8.7-3.6zM822.9 101.3l5.4-7.7 9.5-.6 6.3 7.1-1.6 9.3-8.2 4.6-8.8-3.6zM366.2 172.4l5.4-7.8 9.5-.5 6.3 7-1.5 9.4-8.3 4.6-8.8-3.6zM866.1 31.4l5.4-7.7 9.5-.6 6.3 7.1-1.5 9.3-8.3 4.6-8.8-3.6z"/>
<path class="st1" d="M1024.6 28.5l5.4-7.8 9.5-.5 6.3 7-1.6 9.4-8.2 4.6-8.8-3.6z"/>
<path class="st1" d="M1025.8 38.3l5.5-7.7 9.4-.6 6.4 7.1-1.6 9.3-8.3 4.6-8.7-3.6zM913.1 38.2l5.5-7.7 9.5-.6 6.3 7.1-1.6 9.3-8.3 4.6-8.7-3.6zM866.1 31.4l5.4-7.7 9.5-.6 6.3 7.1-1.5 9.3-8.3 4.6-8.8-3.6zM194.4 250.9l5.4-7.7 9.5-.6 6.3 7.1-1.6 9.3-8.2 4.6-8.8-3.6zM366.2 172.4l5.4-7.8 9.5-.5 6.3 7-1.5 9.4-8.3 4.6-8.8-3.6zM346.9 204.6l5.4-7.7 9.5-.6 6.3 7.1-1.6 9.3-8.2 4.6-8.8-3.6z"/>
<path class="st1" d="M194.4 250.9l5.4-7.7 9.5-.6 6.3 7.1-1.6 9.3-8.2 4.6-8.8-3.6zM346.9 204.6l5.4-7.7 9.5-.6 6.3 7.1-1.6 9.3-8.2 4.6-8.8-3.6zM396.8 327.4l5.5-7.8 9.4-.5 6.4 7-1.6 9.4-8.3 4.6-8.7-3.6zM48.1 375.3l5.5-7.8 9.5-.5 6.3 7-1.6 9.4-8.3 4.6-8.7-3.6z"/>
<path class="st1" d="M194.4 250.9l5.4-7.7 9.5-.6 6.3 7.1-1.6 9.3-8.2 4.6-8.8-3.6zM48.2 262.6l5.5-7.7 9.4-.6 6.4 7.1-1.6 9.3-8.3 4.6-8.7-3.6z"/>
<path class="st1" d="M194.4 250.9l5.4-7.7 9.5-.6 6.3 7.1-1.6 9.3-8.2 4.6-8.8-3.6zM366.2 172.4l5.4-7.8 9.5-.5 6.3 7-1.5 9.4-8.3 4.6-8.8-3.6zM48.2 262.6l5.5-7.7 9.4-.6 6.4 7.1-1.6 9.3-8.3 4.6-8.7-3.6zM227.4 1105.8l5.4-7.7 9.5-.6 6.3 7.1-1.6 9.3-8.2 4.6-8.8-3.6zM268.9 966.7l5.5-7.7 9.5-.6 6.3 7.1-1.6 9.3-8.3 4.6-8.7-3.6zM162.5 776.4l5.5-7.8 9.4-.5 6.3 7-1.5 9.4-8.3 4.6-8.8-3.6zM268.4 696.5l5.4-7.7 9.5-.6 6.3 7.1-1.6 9.3-8.2 4.6-8.8-3.6zM101.9 560.4l5.4-7.7 9.5-.5 6.3 7-1.5 9.3-8.3 4.6-8.8-3.6z"/>
<path class="st1" d="M162.5 776.4l5.5-7.8 9.4-.5 6.3 7-1.5 9.4-8.3 4.6-8.8-3.6zM268.9 966.7l5.5-7.7 9.5-.6 6.3 7.1-1.6 9.3-8.3 4.6-8.7-3.6z"/>
<path class="st1" d="M162.5 776.4l5.5-7.8 9.4-.5 6.3 7-1.5 9.4-8.3 4.6-8.8-3.6zM316.5 834.1l5.5-7.7 9.4-.6 6.3 7.1-1.5 9.3-8.3 4.6-8.8-3.6zM418.5 726.7l5.4-7.8 9.5-.5 6.3 7-1.6 9.4-8.2 4.6-8.8-3.6z"/>
<path class="st1" d="M316.5 834.1l5.5-7.7 9.4-.6 6.3 7.1-1.5 9.3-8.3 4.6-8.8-3.6zM418.5 726.7l5.4-7.8 9.5-.5 6.3 7-1.6 9.4-8.2 4.6-8.8-3.6zM268.4 696.5l5.4-7.7 9.5-.6 6.3 7.1-1.6 9.3-8.2 4.6-8.8-3.6z"/>
<path class="st1" d="M316.5 834.1l5.5-7.7 9.4-.6 6.3 7.1-1.5 9.3-8.3 4.6-8.8-3.6zM162.5 776.4l5.5-7.8 9.4-.5 6.3 7-1.5 9.4-8.3 4.6-8.8-3.6zM268.4 696.5l5.4-7.7 9.5-.6 6.3 7.1-1.6 9.3-8.2 4.6-8.8-3.6z"/>
<path class="st1" d="M316.5 834.1l5.5-7.7 9.4-.6 6.3 7.1-1.5 9.3-8.3 4.6-8.8-3.6zM227.4 1105.8l5.4-7.7 9.5-.6 6.3 7.1-1.6 9.3-8.2 4.6-8.8-3.6zM162.5 776.4l5.5-7.8 9.4-.5 6.3 7-1.5 9.4-8.3 4.6-8.8-3.6zM5.1 346.8l5.4-7.7 9.5-.6 6.3 7.1-1.6 9.3-8.2 4.6-8.8-3.6z"/>
<path class="st1" d="M162.5 776.4l5.5-7.8 9.4-.5 6.3 7-1.5 9.4-8.3 4.6-8.8-3.6zM101.9 560.4l5.4-7.7 9.5-.5 6.3 7-1.5 9.3-8.3 4.6-8.8-3.6zM5.1 346.8l5.4-7.7 9.5-.6 6.3 7.1-1.6 9.3-8.2 4.6-8.8-3.6z"/>
<path class="st1" d="M101.9 560.4l5.4-7.7 9.5-.5 6.3 7-1.5 9.3-8.3 4.6-8.8-3.6zM48.1 375.3l5.5-7.8 9.5-.5 6.3 7-1.6 9.4-8.3 4.6-8.7-3.6zM5.1 346.8l5.4-7.7 9.5-.6 6.3 7.1-1.6 9.3-8.2 4.6-8.8-3.6z"/>
<path class="st1" d="M48.1 375.3l5.5-7.8 9.5-.5 6.3 7-1.6 9.4-8.3 4.6-8.7-3.6zM48.2 262.6l5.5-7.7 9.4-.6 6.4 7.1-1.6 9.3-8.3 4.6-8.7-3.6zM5.1 346.8l5.4-7.7 9.5-.6 6.3 7.1-1.6 9.3-8.2 4.6-8.8-3.6z"/>
<path class="st1" d="M5.1 346.8l5.4-7.7 9.5-.6 6.3 7.1-1.6 9.3-8.2 4.6-8.8-3.6zM48.2 262.6l5.5-7.7 9.4-.6 6.4 7.1-1.6 9.3-8.3 4.6-8.7-3.6zM0 301.2l5.5-7.8 9.4-.5 6.4 7-1.6 9.4-8.3 4.6-8.8-3.6zM752.4 500.7l5.4-7.7 9.5-.6 6.3 7.1-1.6 9.3-8.2 4.6-8.8-3.6zM865.8 522.3l4.1-5.8 7.1-.4 4.7 5.3-1.1 7-6.3 3.4-6.5-2.7zM856.2 387.6l8.9-12.5 15.3-.9 10.3 11.4-2.5 15.2-13.5 7.5-14.2-5.9z"/>
<path class="st1" d="M752.4 500.7l5.4-7.7 9.5-.6 6.3 7.1-1.6 9.3-8.2 4.6-8.8-3.6zM963.4 628l5.5-7.8 9.4-.5 6.4 7-1.6 9.4-8.3 4.6-8.8-3.6zM1122 694.6l5.5-7.8 9.5-.5 6.3 7.1-1.6 9.3-8.3 4.6-8.7-3.6z"/>
<path class="st1" d="M963.4 628l5.5-7.8 9.4-.5 6.4 7-1.6 9.4-8.3 4.6-8.8-3.6z"/>
<path class="st1" d="M963.4 628l5.5-7.8 9.4-.5 6.4 7-1.6 9.4-8.3 4.6-8.8-3.6z"/>
<path class="st1" d="M963.4 628l5.5-7.8 9.4-.5 6.4 7-1.6 9.4-8.3 4.6-8.8-3.6z"/>
<path class="st1" d="M963.4 628l5.5-7.8 9.4-.5 6.4 7-1.6 9.4-8.3 4.6-8.8-3.6zM752.4 500.7l5.4-7.7 9.5-.6 6.3 7.1-1.6 9.3-8.2 4.6-8.8-3.6zM670.2 358.7l5.4-7.8 9.5-.5 6.3 7-1.6 9.4-8.2 4.6-8.8-3.6zM792.5 208.4l5.5-7.7 9.4-.5 6.3 7-1.5 9.3-8.3 4.6-8.8-3.6z"/>
<path class="st1" d="M670.2 358.7l5.4-7.8 9.5-.5 6.3 7-1.6 9.4-8.2 4.6-8.8-3.6zM792.5 208.4l5.5-7.7 9.4-.5 6.3 7-1.5 9.3-8.3 4.6-8.8-3.6zM773.9 158.5l5.5-7.7 9.4-.6 6.4 7.1-1.6 9.3-8.3 4.6-8.7-3.6z"/>
<path class="st1" d="M670.2 358.7l5.4-7.8 9.5-.5 6.3 7-1.6 9.4-8.2 4.6-8.8-3.6zM936.9 303.8l5.5-7.8 9.4-.5 6.4 7-1.6 9.4-8.3 4.6-8.7-3.6z"/>
<path class="st1" d="M936.9 303.8l5.5-7.8 9.4-.5 6.4 7-1.6 9.4-8.3 4.6-8.7-3.6zM792.5 208.4l5.5-7.7 9.4-.5 6.3 7-1.5 9.3-8.3 4.6-8.8-3.6z"/>
<path class="st1" d="M936.9 303.8l5.5-7.8 9.4-.5 6.4 7-1.6 9.4-8.3 4.6-8.7-3.6zM1095.8 159.4l5.4-7.8 9.5-.5 6.3 7-1.5 9.4-8.3 4.6-8.8-3.6zM962.5 159.1l5.5-7.7 9.5-.6 6.3 7.1-1.6 9.3-8.3 4.6-8.7-3.6z"/>
<path class="st1" d="M936.9 303.8l5.5-7.8 9.4-.5 6.4 7-1.6 9.4-8.3 4.6-8.7-3.6zM962.5 159.1l5.5-7.7 9.5-.6 6.3 7.1-1.6 9.3-8.3 4.6-8.7-3.6zM792.5 208.4l5.5-7.7 9.4-.5 6.3 7-1.5 9.3-8.3 4.6-8.8-3.6z"/>
<path class="st1" d="M936.9 303.8l5.5-7.8 9.4-.5 6.4 7-1.6 9.4-8.3 4.6-8.7-3.6zM792.5 208.4l5.5-7.7 9.4-.5 6.3 7-1.5 9.3-8.3 4.6-8.8-3.6zM773.9 158.5l5.5-7.7 9.4-.6 6.4 7.1-1.6 9.3-8.3 4.6-8.7-3.6zM813.8 140.8l5.5-7.7 9.5-.6 6.3 7.1-1.6 9.3-8.3 4.6-8.7-3.6z"/>
<path class="st1" d="M792.5 208.4l5.5-7.7 9.4-.5 6.3 7-1.5 9.3-8.3 4.6-8.8-3.6zM962.5 159.1l5.5-7.7 9.5-.6 6.3 7.1-1.6 9.3-8.3 4.6-8.7-3.6zM813.8 140.8l5.5-7.7 9.5-.6 6.3 7.1-1.6 9.3-8.3 4.6-8.7-3.6zM773.9 158.5l5.5-7.7 9.4-.6 6.4 7.1-1.6 9.3-8.3 4.6-8.7-3.6zM822.9 101.3l5.4-7.7 9.5-.6 6.3 7.1-1.6 9.3-8.2 4.6-8.8-3.6z"/>
<path class="st1" d="M813.8 140.8l5.5-7.7 9.5-.6 6.3 7.1-1.6 9.3-8.3 4.6-8.7-3.6zM962.5 159.1l5.5-7.7 9.5-.6 6.3 7.1-1.6 9.3-8.3 4.6-8.7-3.6z"/>
<path class="st1" d="M813.8 140.8l5.5-7.7 9.5-.6 6.3 7.1-1.6 9.3-8.3 4.6-8.7-3.6zM931.8 102.5l5.4-7.8 9.5-.5 6.3 7-1.5 9.4-8.3 4.6-8.8-3.6z"/>
<path class="st1" d="M813.8 140.8l5.5-7.7 9.5-.6 6.3 7.1-1.6 9.3-8.3 4.6-8.7-3.6zM822.9 101.3l5.4-7.7 9.5-.6 6.3 7.1-1.6 9.3-8.2 4.6-8.8-3.6zM931.8 102.5l5.4-7.8 9.5-.5 6.3 7-1.5 9.4-8.3 4.6-8.8-3.6z"/>
<path class="st1" d="M822.9 101.3l5.4-7.7 9.5-.6 6.3 7.1-1.6 9.3-8.2 4.6-8.8-3.6zM866.1 31.4l5.4-7.7 9.5-.6 6.3 7.1-1.5 9.3-8.3 4.6-8.8-3.6zM931.8 102.5l5.4-7.8 9.5-.5 6.3 7-1.5 9.4-8.3 4.6-8.8-3.6zM913.1 38.2l5.5-7.7 9.5-.6 6.3 7.1-1.6 9.3-8.3 4.6-8.7-3.6z"/>
<path class="st1" d="M866.1 31.4l5.4-7.7 9.5-.6 6.3 7.1-1.5 9.3-8.3 4.6-8.8-3.6zM931.8 102.5l5.4-7.8 9.5-.5 6.3 7-1.5 9.4-8.3 4.6-8.8-3.6zM962.5 159.1l5.5-7.7 9.5-.6 6.3 7.1-1.6 9.3-8.3 4.6-8.7-3.6zM1035.1 133.9l5.5-7.7 9.5-.6 6.3 7.1-1.6 9.3-8.3 4.6-8.7-3.6zM998.2 91.4l5.5-7.8 9.4-.5 6.4 7.1-1.6 9.3-8.3 4.6-8.8-3.6z"/>
<path class="st1" d="M962.5 159.1l5.5-7.7 9.5-.6 6.3 7.1-1.6 9.3-8.3 4.6-8.7-3.6zM931.8 102.5l5.4-7.8 9.5-.5 6.3 7-1.5 9.4-8.3 4.6-8.8-3.6zM998.2 91.4l5.5-7.8 9.4-.5 6.4 7.1-1.6 9.3-8.3 4.6-8.8-3.6zM1035.1 133.9l5.5-7.7 9.5-.6 6.3 7.1-1.6 9.3-8.3 4.6-8.7-3.6zM1025.8 38.3l5.5-7.7 9.4-.6 6.4 7.1-1.6 9.3-8.3 4.6-8.7-3.6z"/>
<path class="st1" d="M998.2 91.4l5.5-7.8 9.4-.5 6.4 7.1-1.6 9.3-8.3 4.6-8.8-3.6zM931.8 102.5l5.4-7.8 9.5-.5 6.3 7-1.5 9.4-8.3 4.6-8.8-3.6zM913.1 38.2l5.5-7.7 9.5-.6 6.3 7.1-1.6 9.3-8.3 4.6-8.7-3.6z"/>
<path class="st1" d="M998.2 91.4l5.5-7.8 9.4-.5 6.4 7.1-1.6 9.3-8.3 4.6-8.8-3.6zM1025.8 38.3l5.5-7.7 9.4-.6 6.4 7.1-1.6 9.3-8.3 4.6-8.7-3.6zM913.1 38.2l5.5-7.7 9.5-.6 6.3 7.1-1.6 9.3-8.3 4.6-8.7-3.6z"/>
<path class="st1" d="M998.2 91.4l5.5-7.8 9.4-.5 6.4 7.1-1.6 9.3-8.3 4.6-8.8-3.6zM1183.9 879.4l5.4-7.7 9.5-.5 6.3 7-1.5 9.4-8.3 4.6-8.8-3.7zM1122 694.6l5.5-7.8 9.5-.5 6.3 7.1-1.6 9.3-8.3 4.6-8.7-3.6zM1030.5 774.4l5.4-7.7 9.5-.6 6.3 7.1-1.5 9.3-8.3 4.6-8.8-3.6z"/>
<path class="st1" d="M1030.5 774.4l5.4-7.7 9.5-.6 6.3 7.1-1.5 9.3-8.3 4.6-8.8-3.6zM963.4 628l5.5-7.8 9.4-.5 6.4 7-1.6 9.4-8.3 4.6-8.8-3.6z"/>
<path class="st1" d="M1030.5 774.4l5.4-7.7 9.5-.6 6.3 7.1-1.5 9.3-8.3 4.6-8.8-3.6zM1122 694.6l5.5-7.8 9.5-.5 6.3 7.1-1.6 9.3-8.3 4.6-8.7-3.6zM963.4 628l5.5-7.8 9.4-.5 6.4 7-1.6 9.4-8.3 4.6-8.8-3.6z"/>
<path class="st1" d="M1030.5 774.4l5.4-7.7 9.5-.6 6.3 7.1-1.5 9.3-8.3 4.6-8.8-3.6zM1183.9 879.4l5.4-7.7 9.5-.5 6.3 7-1.5 9.4-8.3 4.6-8.8-3.7z"/>
<path class="st1" d="M1030.5 774.4l5.4-7.7 9.5-.6 6.3 7.1-1.5 9.3-8.3 4.6-8.8-3.6zM1102.5 1001.4l5.5-7.8 9.4-.5 6.3 7.1-1.5 9.3-8.3 4.6-8.8-3.6z"/>
<path class="st1" d="M1026.2 773.8l7.6-10.6 13-.8 8.7 9.7-2.2 12.8-11.4 6.4-12-5zM1102.5 1001.4l5.5-7.8 9.4-.5 6.3 7.1-1.5 9.3-8.3 4.6-8.8-3.6zM1176.8 878.4l8.9-12.6 15.4-.9 10.2 11.5-2.5 15.2-13.5 7.5-14.2-5.9z"/>
<path class="st1" d="M1102.5 1001.4l5.5-7.8 9.4-.5 6.3 7.1-1.5 9.3-8.3 4.6-8.8-3.6zM677.5 962.9l5.5-7.8 9.4-.5 6.4 7-1.6 9.4-8.3 4.6-8.7-3.6zM403.3 1253.4l5.5-7.7 9.5-.6 6.3 7.1-1.6 9.3-8.3 4.6-8.7-3.6zM500.1 1120.9l5.5-7.7 9.4-.6 6.3 7.1-1.5 9.3-8.3 4.6-8.8-3.6zM549.9 1278.5l5.5-7.7 9.4-.6 6.4 7.1-1.6 9.3-8.3 4.6-8.7-3.6z"/>
<path class="st1" d="M549.9 1278.5l5.5-7.7 9.4-.6 6.4 7.1-1.6 9.3-8.3 4.6-8.7-3.6zM403.3 1253.4l5.5-7.7 9.5-.6 6.3 7.1-1.6 9.3-8.3 4.6-8.7-3.6zM436.4 1331.9l5.4-7.7 9.5-.6 6.3 7.1-1.5 9.3-8.3 4.6-8.8-3.6zM403.9 1318.8l5.5-7.7 9.4-.6 6.3 7.1-1.5 9.3-8.3 4.6-8.8-3.6z"/>
<path class="st1" d="M403.3 1253.4l5.5-7.7 9.5-.6 6.3 7.1-1.6 9.3-8.3 4.6-8.7-3.6zM436.4 1331.9l5.4-7.7 9.5-.6 6.3 7.1-1.5 9.3-8.3 4.6-8.8-3.6zM403.9 1318.8l5.5-7.7 9.4-.6 6.3 7.1-1.5 9.3-8.3 4.6-8.8-3.6z"/>
<path class="st1" d="M403.3 1253.4l5.5-7.7 9.5-.6 6.3 7.1-1.6 9.3-8.3 4.6-8.7-3.6zM313.4 1324.6l5.4-7.7 9.5-.6 6.3 7.1-1.5 9.3-8.3 4.6-8.8-3.6zM436.4 1331.9l5.4-7.7 9.5-.6 6.3 7.1-1.5 9.3-8.3 4.6-8.8-3.6zM403.9 1318.8l5.5-7.7 9.4-.6 6.3 7.1-1.5 9.3-8.3 4.6-8.8-3.6z"/>
<path class="st1" d="M313.4 1324.6l5.4-7.7 9.5-.6 6.3 7.1-1.5 9.3-8.3 4.6-8.8-3.6z"/>
<path class="st1" d="M313.4 1324.6l5.4-7.7 9.5-.6 6.3 7.1-1.5 9.3-8.3 4.6-8.8-3.6zM403.3 1253.4l5.5-7.7 9.5-.6 6.3 7.1-1.6 9.3-8.3 4.6-8.7-3.6zM291.3 1269.6l5.4-7.8 9.5-.5 6.3 7-1.6 9.4-8.2 4.6-8.8-3.6zM227.4 1105.8l5.4-7.7 9.5-.6 6.3 7.1-1.6 9.3-8.2 4.6-8.8-3.6zM268.9 966.7l5.5-7.7 9.5-.6 6.3 7.1-1.6 9.3-8.3 4.6-8.7-3.6zM351.7 1047.2l5.5-7.8 9.4-.5 6.3 7.1-1.5 9.3-8.3 4.6-8.8-3.6z"/>
<path class="st1" d="M403.3 1253.4l5.5-7.7 9.5-.6 6.3 7.1-1.6 9.3-8.3 4.6-8.7-3.6zM500.1 1120.9l5.5-7.7 9.4-.6 6.3 7.1-1.5 9.3-8.3 4.6-8.8-3.6zM351.7 1047.2l5.5-7.8 9.4-.5 6.3 7.1-1.5 9.3-8.3 4.6-8.8-3.6z"/>
<path class="st1" d="M403.3 1253.4l5.5-7.7 9.5-.6 6.3 7.1-1.6 9.3-8.3 4.6-8.7-3.6zM291.3 1269.6l5.4-7.8 9.5-.5 6.3 7-1.6 9.4-8.2 4.6-8.8-3.6zM351.7 1047.2l5.5-7.8 9.4-.5 6.3 7.1-1.5 9.3-8.3 4.6-8.8-3.6z"/>
<path class="st1" d="M291.3 1269.6l5.4-7.8 9.5-.5 6.3 7-1.6 9.4-8.2 4.6-8.8-3.6zM227.4 1105.8l5.4-7.7 9.5-.6 6.3 7.1-1.6 9.3-8.2 4.6-8.8-3.6zM351.7 1047.2l5.5-7.8 9.4-.5 6.3 7.1-1.5 9.3-8.3 4.6-8.8-3.6z"/>
<path class="st1" d="M351.7 1047.2l5.5-7.8 9.4-.5 6.3 7.1-1.5 9.3-8.3 4.6-8.8-3.6zM268.9 966.7l5.5-7.7 9.5-.6 6.3 7.1-1.6 9.3-8.3 4.6-8.7-3.6zM394.1 967.3l5.4-7.7 9.5-.6 6.3 7.1-1.6 9.3-8.2 4.6-8.8-3.6z"/>
<path class="st1" d="M268.9 966.7l5.5-7.7 9.5-.6 6.3 7.1-1.6 9.3-8.3 4.6-8.7-3.6zM316.5 834.1l5.5-7.7 9.4-.6 6.3 7.1-1.5 9.3-8.3 4.6-8.8-3.6zM394.1 967.3l5.4-7.7 9.5-.6 6.3 7.1-1.6 9.3-8.2 4.6-8.8-3.6z"/>
<path class="st1" d="M316.5 834.1l5.5-7.7 9.4-.6 6.3 7.1-1.5 9.3-8.3 4.6-8.8-3.6zM394.1 967.3l5.4-7.7 9.5-.6 6.3 7.1-1.6 9.3-8.2 4.6-8.8-3.6zM500.1 1120.9l5.5-7.7 9.4-.6 6.3 7.1-1.5 9.3-8.3 4.6-8.8-3.6zM351.7 1047.2l5.5-7.8 9.4-.5 6.3 7.1-1.5 9.3-8.3 4.6-8.8-3.6zM524.2 999.2l5.4-7.8 9.5-.5 6.3 7-1.5 9.4-8.3 4.6-8.8-3.6zM677.5 962.9l5.5-7.8 9.4-.5 6.4 7-1.6 9.4-8.3 4.6-8.7-3.6z"/>
<path class="st1" d="M524.2 999.2l5.4-7.8 9.5-.5 6.3 7-1.5 9.4-8.3 4.6-8.8-3.6zM351.7 1047.2l5.5-7.8 9.4-.5 6.3 7.1-1.5 9.3-8.3 4.6-8.8-3.6zM394.1 967.3l5.4-7.7 9.5-.6 6.3 7.1-1.6 9.3-8.2 4.6-8.8-3.6z"/>
<path class="st1" d="M524.2 999.2l5.4-7.8 9.5-.5 6.3 7-1.5 9.4-8.3 4.6-8.8-3.6zM394.1 967.3l5.4-7.7 9.5-.6 6.3 7.1-1.6 9.3-8.2 4.6-8.8-3.6z"/>
<path class="st1" d="M524.2 999.2l5.4-7.8 9.5-.5 6.3 7-1.5 9.4-8.3 4.6-8.8-3.6zM500.1 1120.9l5.5-7.7 9.4-.6 6.3 7.1-1.5 9.3-8.3 4.6-8.8-3.6z"/><path class="st1" d="M524.2 999.2l5.4-7.8 9.5-.5 6.3 7-1.5 9.4-8.3 4.6-8.8-3.6zM684.2 1063.4l5.4-7.8 9.5-.5 6.3 7-1.6 9.4-8.3 4.6-8.7-3.6zM677.5 962.9l5.5-7.8 9.4-.5 6.4 7-1.6 9.4-8.3 4.6-8.7-3.6z"/>
<path class="st1" d="M524.2 999.2l5.4-7.8 9.5-.5 6.3 7-1.5 9.4-8.3 4.6-8.8-3.6zM684.2 1063.4l5.4-7.8 9.5-.5 6.3 7-1.6 9.4-8.3 4.6-8.7-3.6zM549.9 1278.5l5.5-7.7 9.4-.6 6.4 7.1-1.6 9.3-8.3 4.6-8.7-3.6zM500.1 1120.9l5.5-7.7 9.4-.6 6.3 7.1-1.5 9.3-8.3 4.6-8.8-3.6z"/>
<path class="st1" d="M684.2 1063.4l5.4-7.8 9.5-.5 6.3 7-1.6 9.4-8.3 4.6-8.7-3.6zM549.9 1278.5l5.5-7.7 9.4-.6 6.4 7.1-1.6 9.3-8.3 4.6-8.7-3.6zM851.3 1152.1l5.4-7.7 9.5-.6 6.3 7.1-1.6 9.3-8.2 4.6-8.8-3.6z"/>
<path class="st1" d="M684.2 1063.4l5.4-7.8 9.5-.5 6.3 7-1.6 9.4-8.3 4.6-8.7-3.6zM851.3 1152.1l5.4-7.7 9.5-.6 6.3 7.1-1.6 9.3-8.2 4.6-8.8-3.6z"/>
<path class="st1" d="M684.2 1063.4l5.4-7.8 9.5-.5 6.3 7-1.6 9.4-8.3 4.6-8.7-3.6zM677.5 962.9l5.5-7.8 9.4-.5 6.4 7-1.6 9.4-8.3 4.6-8.7-3.6z"/>
<path class="st1" d="M684.2 1063.4l5.4-7.8 9.5-.5 6.3 7-1.6 9.4-8.3 4.6-8.7-3.6zM677.5 962.9l5.5-7.8 9.4-.5 6.4 7-1.6 9.4-8.3 4.6-8.7-3.6zM686.9 868l5.4-7.8 9.5-.5 6.3 7-1.6 9.4-8.2 4.6-8.8-3.6z"/>
<path class="st1" d="M686.9 868l5.4-7.8 9.5-.5 6.3 7-1.6 9.4-8.2 4.6-8.8-3.6zM677.5 962.9l5.5-7.8 9.4-.5 6.4 7-1.6 9.4-8.3 4.6-8.7-3.6z"/>
<path class="st1" d="M686.9 868l5.4-7.8 9.5-.5 6.3 7-1.6 9.4-8.2 4.6-8.8-3.6z"/>
<path class="st1" d="M686.9 868l5.4-7.8 9.5-.5 6.3 7-1.6 9.4-8.2 4.6-8.8-3.6z"/>
<path class="st1" d="M686.9 868l5.4-7.8 9.5-.5 6.3 7-1.6 9.4-8.2 4.6-8.8-3.6zM573.6 724.7l5.4-7.8 9.5-.5 6.3 7.1-1.5 9.3-8.3 4.6-8.8-3.6z"/>
<path class="st1" d="M686.9 868l5.4-7.8 9.5-.5 6.3 7-1.6 9.4-8.2 4.6-8.8-3.6zM573.6 724.7l5.4-7.8 9.5-.5 6.3 7.1-1.5 9.3-8.3 4.6-8.8-3.6zM418.5 726.7l5.4-7.8 9.5-.5 6.3 7-1.6 9.4-8.2 4.6-8.8-3.6z"/>
<path class="st1" d="M573.6 724.7l5.4-7.8 9.5-.5 6.3 7.1-1.5 9.3-8.3 4.6-8.8-3.6zM418.5 726.7l5.4-7.8 9.5-.5 6.3 7-1.6 9.4-8.2 4.6-8.8-3.6zM519.2 586.8l5.5-7.7 9.4-.6 6.4 7.1-1.6 9.3-8.3 4.6-8.7-3.6z"/>
<path class="st1" d="M573.6 724.7l5.4-7.8 9.5-.5 6.3 7.1-1.5 9.3-8.3 4.6-8.8-3.6zM643.8 599.6l3.4-4.8 5.9-.3 3.9 4.4-.9 5.8-5.2 2.9-5.5-2.3z"/>
<path class="st1" d="M573.6 724.7l5.4-7.8 9.5-.5 6.3 7.1-1.5 9.3-8.3 4.6-8.8-3.6zM752.4 500.7l5.4-7.7 9.5-.6 6.3 7.1-1.6 9.3-8.2 4.6-8.8-3.6z"/>
<path class="st1" d="M573.6 724.7l5.4-7.8 9.5-.5 6.3 7.1-1.5 9.3-8.3 4.6-8.8-3.6zM519.2 586.8l5.5-7.7 9.4-.6 6.4 7.1-1.6 9.3-8.3 4.6-8.7-3.6z"/>
<path class="st1" d="M519.2 586.8l5.5-7.7 9.4-.6 6.4 7.1-1.6 9.3-8.3 4.6-8.7-3.6zM583.2 482.4l7.5-10.6 13-.8 8.7 9.7-2.1 12.9-11.4 6.3-12.1-5zM752.4 500.7l5.4-7.7 9.5-.6 6.3 7.1-1.6 9.3-8.2 4.6-8.8-3.6z"/>
<path class="st1" d="M519.2 586.8l5.5-7.7 9.4-.6 6.4 7.1-1.6 9.3-8.3 4.6-8.7-3.6zM373 457.2l5.5-7.8 9.5-.5 6.3 7-1.6 9.4-8.3 4.6-8.7-3.6zM752.4 500.7l5.4-7.7 9.5-.6 6.3 7.1-1.6 9.3-8.2 4.6-8.8-3.6zM670.2 358.7l5.4-7.8 9.5-.5 6.3 7-1.6 9.4-8.2 4.6-8.8-3.6z"/>
<path class="st1" d="M373 457.2l5.5-7.8 9.5-.5 6.3 7-1.6 9.4-8.3 4.6-8.7-3.6zM396.8 327.4l5.5-7.8 9.4-.5 6.4 7-1.6 9.4-8.3 4.6-8.7-3.6zM418.5 726.7l5.4-7.8 9.5-.5 6.3 7-1.6 9.4-8.2 4.6-8.8-3.6zM268.4 696.5l5.4-7.7 9.5-.6 6.3 7.1-1.6 9.3-8.2 4.6-8.8-3.6zM324.8 559.2l5.5-7.7 9.4-.5 6.4 7-1.6 9.4-8.3 4.6-8.7-3.7z"/>
<path class="st1" d="M418.5 726.7l5.4-7.8 9.5-.5 6.3 7-1.6 9.4-8.2 4.6-8.8-3.6zM519.2 586.8l5.5-7.7 9.4-.6 6.4 7.1-1.6 9.3-8.3 4.6-8.7-3.6zM324.8 559.2l5.5-7.7 9.4-.5 6.4 7-1.6 9.4-8.3 4.6-8.7-3.7zM268.4 696.5l5.4-7.7 9.5-.6 6.3 7.1-1.6 9.3-8.2 4.6-8.8-3.6zM101.9 560.4l5.4-7.7 9.5-.5 6.3 7-1.5 9.3-8.3 4.6-8.8-3.6z"/>
<path class="st1" d="M324.8 559.2l5.5-7.7 9.4-.5 6.4 7-1.6 9.4-8.3 4.6-8.7-3.7zM519.2 586.8l5.5-7.7 9.4-.6 6.4 7.1-1.6 9.3-8.3 4.6-8.7-3.6zM373 457.2l5.5-7.8 9.5-.5 6.3 7-1.6 9.4-8.3 4.6-8.7-3.6z"/>
<path class="st1" d="M324.8 559.2l5.5-7.7 9.4-.5 6.4 7-1.6 9.4-8.3 4.6-8.7-3.7z"/>
<path class="st1" d="M324.8 559.2l5.5-7.7 9.4-.5 6.4 7-1.6 9.4-8.3 4.6-8.7-3.7zM101.9 560.4l5.4-7.7 9.5-.5 6.3 7-1.5 9.3-8.3 4.6-8.8-3.6zM226.6 411.6l5.5-7.8 9.5-.5 6.3 7-1.6 9.4-8.3 4.6-8.7-3.6z"/>
<path class="st1" d="M324.8 559.2l5.5-7.7 9.4-.5 6.4 7-1.6 9.4-8.3 4.6-8.7-3.7zM373 457.2l5.5-7.8 9.5-.5 6.3 7-1.6 9.4-8.3 4.6-8.7-3.6zM226.6 411.6l5.5-7.8 9.5-.5 6.3 7-1.6 9.4-8.3 4.6-8.7-3.6zM101.9 560.4l5.4-7.7 9.5-.5 6.3 7-1.5 9.3-8.3 4.6-8.8-3.6zM48.1 375.3l5.5-7.8 9.5-.5 6.3 7-1.6 9.4-8.3 4.6-8.7-3.6z"/>
<path class="st1" d="M226.6 411.6l5.5-7.8 9.5-.5 6.3 7-1.6 9.4-8.3 4.6-8.7-3.6zM373 457.2l5.5-7.8 9.5-.5 6.3 7-1.6 9.4-8.3 4.6-8.7-3.6zM396.8 327.4l5.5-7.8 9.4-.5 6.4 7-1.6 9.4-8.3 4.6-8.7-3.6z"/>
<path class="st1" d="M226.6 411.6l5.5-7.8 9.5-.5 6.3 7-1.6 9.4-8.3 4.6-8.7-3.6zM396.8 327.4l5.5-7.8 9.4-.5 6.4 7-1.6 9.4-8.3 4.6-8.7-3.6zM194.4 250.9l5.4-7.7 9.5-.6 6.3 7.1-1.6 9.3-8.2 4.6-8.8-3.6z"/>
<path class="st1" d="M226.6 411.6l5.5-7.8 9.5-.5 6.3 7-1.6 9.4-8.3 4.6-8.7-3.6zM48.1 375.3l5.5-7.8 9.5-.5 6.3 7-1.6 9.4-8.3 4.6-8.7-3.6zM194.4 250.9l5.4-7.7 9.5-.6 6.3 7.1-1.6 9.3-8.2 4.6-8.8-3.6z"/>
<path class="st1" d="M226.6 411.6l5.5-7.8 9.5-.5 6.3 7-1.6 9.4-8.3 4.6-8.7-3.6zM670.2 358.7l5.4-7.8 9.5-.5 6.3 7-1.6 9.4-8.2 4.6-8.8-3.6zM530.8 259.8l5.5-7.8 9.5-.5 6.3 7-1.6 9.4-8.3 4.6-8.7-3.6zM396.8 327.4l5.5-7.8 9.4-.5 6.4 7-1.6 9.4-8.3 4.6-8.7-3.6z"/>
<path class="st1" d="M530.8 259.8l5.5-7.8 9.5-.5 6.3 7-1.6 9.4-8.3 4.6-8.7-3.6zM670.2 358.7l5.4-7.8 9.5-.5 6.3 7-1.6 9.4-8.2 4.6-8.8-3.6zM773.9 158.5l5.5-7.7 9.4-.6 6.4 7.1-1.6 9.3-8.3 4.6-8.7-3.6z"/>
<path class="st1" d="M530.8 259.8l5.5-7.8 9.5-.5 6.3 7-1.6 9.4-8.3 4.6-8.7-3.6zM396.8 327.4l5.5-7.8 9.4-.5 6.4 7-1.6 9.4-8.3 4.6-8.7-3.6zM346.9 204.6l5.4-7.7 9.5-.6 6.3 7.1-1.6 9.3-8.2 4.6-8.8-3.6z"/>
<path class="st1" d="M530.8 259.8l5.5-7.8 9.5-.5 6.3 7-1.6 9.4-8.3 4.6-8.7-3.6zM773.9 158.5l5.5-7.7 9.4-.6 6.4 7.1-1.6 9.3-8.3 4.6-8.7-3.6zM366.2 172.4l5.4-7.8 9.5-.5 6.3 7-1.5 9.4-8.3 4.6-8.8-3.6z"/>
<path class="st1" d="M530.8 259.8l5.5-7.8 9.5-.5 6.3 7-1.6 9.4-8.3 4.6-8.7-3.6zM346.9 204.6l5.4-7.7 9.5-.6 6.3 7.1-1.6 9.3-8.2 4.6-8.8-3.6zM366.2 172.4l5.4-7.8 9.5-.5 6.3 7-1.5 9.4-8.3 4.6-8.8-3.6z"/>
<path class="st1" d="M530.8 259.8l5.5-7.8 9.5-.5 6.3 7-1.6 9.4-8.3 4.6-8.7-3.6zM915.6 1098.6l5.5-7.7 9.4-.6 6.4 7.1-1.6 9.3-8.3 4.6-8.7-3.6zM851.3 1152.1l5.4-7.7 9.5-.6 6.3 7.1-1.6 9.3-8.2 4.6-8.8-3.6z"/>
<path class="st1" d="M915.6 1098.6l5.5-7.7 9.4-.6 6.4 7.1-1.6 9.3-8.3 4.6-8.7-3.6zM1102.5 1001.4l5.5-7.8 9.4-.5 6.3 7.1-1.5 9.3-8.3 4.6-8.8-3.6z"/>
<path class="st1" d="M915.6 1098.6l5.5-7.7 9.4-.6 6.4 7.1-1.6 9.3-8.3 4.6-8.7-3.6zM851.3 1152.1l5.4-7.7 9.5-.6 6.3 7.1-1.6 9.3-8.2 4.6-8.8-3.6z"/>
<path class="st1" d="M915.6 1098.6l5.5-7.7 9.4-.6 6.4 7.1-1.6 9.3-8.3 4.6-8.7-3.6zM1102.5 1001.4l5.5-7.8 9.4-.5 6.3 7.1-1.5 9.3-8.3 4.6-8.8-3.6z"/>
<path class="st1" d="M915.6 1098.6l5.5-7.7 9.4-.6 6.4 7.1-1.6 9.3-8.3 4.6-8.7-3.6z"/>
<path class="st1" d="M915.6 1098.6l5.5-7.7 9.4-.6 6.4 7.1-1.6 9.3-8.3 4.6-8.7-3.6z"/>
</g>
</svg>